<svg xmlns="http://www.w3.org/2000/svg" viewBox="0 0 169.95 167.2"><defs><style>.cls-1{fill:#1f35de;}</style></defs><g id="Layer_2" data-name="Layer 2"><g id="Layer_1-2" data-name="Layer 1"><path class="cls-1" d="M84.63,167.2c-49,0-84.63-35-84.63-83.26C0,60.58,8.51,39.25,24,23.88S61,0,84.63,0s45.33,8.48,61,23.87S170,60.62,170,83.94s-8.64,44.49-24.33,59.73S108.34,167.2,84.63,167.2Zm0-164.45C37.19,2.75,2.75,36.9,2.75,83.94c0,46.65,34.44,80.51,81.88,80.51,47.84,0,82.57-33.86,82.57-80.51,0-22.58-8.35-43.21-23.5-58.1S107.57,2.75,84.63,2.75Z"/><path class="cls-1" d="M59.17,105.27c-16.2,0-27.52-9-27.52-22a16.36,16.36,0,0,1,3-9.74A1.37,1.37,0,0,1,36.28,73l12.38,4.81a1.37,1.37,0,0,1,.73,1.9c-1.27,2.55-1.92,3.84-1.92,4.89,0,4.45,5.91,6.88,9,6.88,4,0,6.19-4.25,6.19-8.26,0-2.59-1.42-4.32-10.21-8.38a1.43,1.43,0,0,1-.72-.79A1.37,1.37,0,0,1,51.75,73l4.82-9.64a1.37,1.37,0,0,1,1.84-.61c3.61,1.8,5.75,2.61,7,2.61,2.39,0,6.19-1.87,6.19-6.89,0-2.74-3-4.81-6.88-4.81C62.15,53.67,61.1,55,59,59.1a1.39,1.39,0,0,1-1.88.6L45.46,53.51a1.38,1.38,0,0,1-.61-1.79c3.46-7.62,9.77-11.81,17.76-11.81,13.56,0,25.46,9.32,25.46,20A16.85,16.85,0,0,1,75,76.09,15.51,15.51,0,0,1,78.44,86C78.44,97.17,70.33,105.27,59.17,105.27ZM36.32,76a13.66,13.66,0,0,0-1.92,7.23c0,11.38,10.19,19.3,24.77,19.3,9.57,0,16.52-6.94,16.52-16.51a13.36,13.36,0,0,0-4.42-10,1.38,1.38,0,0,1,1-2.35c7,0,13.07-6.43,13.07-13.76,0-9.16-10.61-17.2-22.71-17.2a16,16,0,0,0-14.69,9l9.29,4.92c1.83-3.49,3.6-5.7,7.47-5.7,5.49,0,9.63,3.25,9.63,7.56,0,6-4.55,9.64-8.94,9.64-1.55,0-3.55-.66-7-2.3L54.84,73c8.22,3.91,10.52,6.22,10.52,10.28,0,5.34-3.13,11-8.94,11-4.2,0-11.7-3.22-11.7-9.63,0-1.42.52-2.68,1.54-4.77Z"/><path class="cls-1" d="M110.78,124.54c-4,0-8.81-1.2-14.31-3.56l-20.61-8.24a1.39,1.39,0,0,1-.75-.74,1.33,1.33,0,0,1,0-1.07L98.5,55.2a1.33,1.33,0,0,1,.75-.74,1.35,1.35,0,0,1,1.06,0L121,63.41c13.23,5.58,19.4,14.07,19.4,26.72C140.36,106.75,128.47,124.54,110.78,124.54Zm-32.6-13.83,19.35,7.73c5.18,2.23,9.63,3.35,13.25,3.35,16,0,26.83-16.37,26.83-31.66,0-11.56-5.47-19-17.73-24.19L100.5,57.55Z"/><path class="cls-1" d="M108.71,113.53a24.74,24.74,0,0,1-9.45-2.17l-7.53-2.73a1.39,1.39,0,0,1-.8-1.83l15.83-37.16a1.34,1.34,0,0,1,.77-.74,1.39,1.39,0,0,1,1.06,0l7.57,3.44c9.28,4.28,11.82,7.51,11.82,15S122.25,113.53,108.71,113.53Zm-14.68-7,6.21,2.26a22.42,22.42,0,0,0,8.47,2c10.9,0,16.52-16.4,16.52-23.4,0-6-1.34-8.42-10.21-12.51L108.74,72Z"/></g></g></svg>